
<svg
  version="1.0"
  xmlns="http://www.w3.org/2000/svg"
  xmlns:xlink="http://www.w3.org/1999/xlink"
  width="2400"
  height="1800"
>
  
  
  <svg
    version="1.0"
    xmlns="http://www.w3.org/2000/svg"
    xmlns:xlink="http://www.w3.org/1999/xlink"
    x="0"
    y="0"
    width="2400"
    height="1800"
    viewBox="0 0 340.000000 250.000000"
    preserveAspectRatio="xMidYMid meet"
    color-interpolation-filters="sRGB"
  >
    <defs><linearGradient id="92" x1="0%" y1="0%" x2="100%" y2="0%"><stop offset="0%" stop-color="#fa71cd"/> <stop offset="100%" stop-color="#9b59b6"/></linearGradient><linearGradient id="93" x1="0%" y1="0%" x2="100%" y2="0%"><stop offset="0%" stop-color="#f9d423"/> <stop offset="100%" stop-color="#f83600"/></linearGradient><linearGradient id="94" x1="0%" y1="0%" x2="100%" y2="0%"><stop offset="0%" stop-color="#0064d2"/> <stop offset="100%" stop-color="#1cb0f6"/></linearGradient><linearGradient id="95" x1="0%" y1="0%" x2="100%" y2="0%"><stop offset="0%" stop-color="#f00978"/> <stop offset="100%" stop-color="#3f51b1"/></linearGradient><linearGradient id="96" x1="0%" y1="0%" x2="100%" y2="0%"><stop offset="0%" stop-color="#7873f5"/> <stop offset="100%" stop-color="#ec77ab"/></linearGradient><linearGradient id="97" x1="0%" y1="0%" x2="100%" y2="0%"><stop offset="0%" stop-color="#f9d423"/> <stop offset="100%" stop-color="#e14fad"/></linearGradient><linearGradient id="98" x1="0%" y1="0%" x2="100%" y2="0%"><stop offset="0%" stop-color="#009efd"/> <stop offset="100%" stop-color="#2af598"/></linearGradient><linearGradient id="99" x1="0%" y1="0%" x2="100%" y2="0%"><stop offset="0%" stop-color="#ffcc00"/> <stop offset="100%" stop-color="#00b140"/></linearGradient><linearGradient id="100" x1="0%" y1="0%" x2="100%" y2="0%"><stop offset="0%" stop-color="#d51007"/> <stop offset="100%" stop-color="#ff8177"/></linearGradient><linearGradient id="102" x1="0%" y1="0%" x2="100%" y2="0%"><stop offset="0%" stop-color="#a2b6df"/> <stop offset="100%" stop-color="#0c3483"/></linearGradient><linearGradient id="103" x1="0%" y1="0%" x2="100%" y2="0%"><stop offset="0%" stop-color="#7ac5d8"/> <stop offset="100%" stop-color="#eea2a2"/></linearGradient><linearGradient id="104" x1="0%" y1="0%" x2="100%" y2="0%"><stop offset="0%" stop-color="#00ecbc"/> <stop offset="100%" stop-color="#007adf"/></linearGradient><linearGradient id="105" x1="0%" y1="0%" x2="100%" y2="0%"><stop offset="0%" stop-color="#b88746"/> <stop offset="100%" stop-color="#fdf5a6"/></linearGradient></defs> <g fill="#02000b" class="newinitialsvg-g newinitialsvg" transform="translate(95.05279541015625,90.64239287376404)"><g class="tp-name" transform="translate(0,0)"><g transform="translate(0, 0)"><g fill="#02000b" transform="translate(0,3)"><g transform="scale(1.08)"><path d="M26.58-40.08L26.34-39.48Q20.88-41.58 16.05-41.58Q11.22-41.58 8.52-39.54Q5.82-37.50 5.82-33.90L5.82-33.90Q5.82-29.52 10.38-27.12L10.38-27.12Q12.42-26.10 14.85-25.23Q17.28-24.36 19.74-23.28Q22.20-22.20 24.24-20.82Q26.28-19.44 27.54-17.01Q28.80-14.58 28.80-10.83Q28.80-7.08 26.70-4.44Q24.60-1.80 21.63-0.87Q18.66 0.06 14.70 0.06L14.70 0.06Q7.32 0.06 2.10-3.60L2.10-3.60L2.40-4.08Q4.38-2.52 7.53-1.53Q10.68-0.54 13.98-0.54L13.98-0.54Q18.84-0.54 22.29-2.79Q25.74-5.04 25.74-9.42L25.74-9.42Q25.74-14.22 21.18-16.92L21.18-16.92Q19.14-18.12 16.71-19.14Q14.28-20.16 11.82-21.27Q9.36-22.38 7.32-23.76L7.32-23.76Q2.76-26.76 2.76-32.28L2.76-32.28Q2.76-36.66 5.70-39.39Q8.64-42.12 14.55-42.12Q20.46-42.12 26.58-40.08L26.58-40.08Z" transform="translate(-2.1, 42.3)"/></g></g></g><g transform="translate(32.836, 0)"><g fill="#02000b" transform="translate(0,3)"><g transform="scale(1.08)"><path d="M3-19.98L3-19.98Q3-30.90 8.31-36.57Q13.62-42.24 21.96-42.24Q30.30-42.24 35.25-37.32Q40.20-32.40 40.20-21.60Q40.20-10.80 34.92-5.28Q29.64 0.24 20.82 0.24L20.82 0.24Q13.20 0.24 8.34-4.14L8.34-4.14Q5.82-6.42 4.41-10.47Q3-14.52 3-19.98ZM21.78-41.64Q15.72-41.64 11.85-36.24Q7.98-30.84 7.98-20.40Q7.98-9.96 11.64-5.16Q15.30-0.36 21.39-0.36Q27.48-0.36 31.35-5.79Q35.22-11.22 35.22-21.57Q35.22-31.92 31.53-36.78Q27.84-41.64 21.78-41.64Z" transform="translate(-3, 42.3)"/></g></g></g><g class="tp-graph" transform="translate(77.012, 0)"><rect fill="none" x="0" y="3.3240033090114594" width="32.464800000000004" height="0"/> <g transform="translate(0.0000010131835956883606,3)"><g transform="scale(-1.08, 1.08) translate(-30.05999755859375, 0)" fill="#02000b"><path d="M4.20 0L4.20-41.52Q11.16-42 16.50-42L16.50-42Q31.32-42 31.32-32.10L31.32-32.10Q31.32-27.90 29.28-24.60Q27.24-21.30 22.26-20.22L22.26-20.22L34.26 0L28.68 0L16.92-19.86L9.18-19.86L9.18 0L4.20 0ZM16.50-41.40L16.50-41.40Q13.02-41.40 9.18-40.98L9.18-40.98L9.18-20.46L18.06-20.46Q26.52-20.82 26.52-31.98L26.52-31.98Q26.52-36.54 24-38.97Q21.48-41.40 16.50-41.40Z" transform="translate(-4.2, 42.3)"/></g></g></g><g transform="translate(113.4768, 0)"><g fill="#02000b" transform="translate(0,3)"><g transform="scale(1.08)"><path d="M8.22-13.20L2.52 0L1.80 0L19.74-42L20.40-42.30L35.52 0L30.42 0L25.74-13.20L8.22-13.20ZM25.56-13.80L17.88-35.52L8.46-13.80L25.56-13.80Z" transform="translate(-1.7999999999999998, 42.3)"/></g></g></g></g> <g fill-rule="" class="tp-slogan" fill="#02000b" transform="translate(5,57.94321084022522)"><rect x="0" height="1" y="3.385000228881836" width="7.832206726074219"/> <rect height="1" y="3.385000228881836" width="7.832206726074219" x="132.06220245361328"/> <g transform="translate(10.832206726074219,0)"><g transform="scale(1)"><path d="M6.64-6.50Q6.64-6.86 6.56-7.04Q6.49-7.21 6.28-7.28Q6.06-7.36 5.62-7.36L5.62-7.36Q5.58-7.36 5.58-7.43Q5.58-7.50 5.62-7.50L5.62-7.50L6.19-7.49Q6.77-7.46 7.21-7.46L7.21-7.46Q7.54-7.46 8.09-7.49L8.09-7.49L8.75-7.50Q8.78-7.50 8.78-7.43Q8.78-7.36 8.75-7.36L8.75-7.36Q8.32-7.36 8.11-7.29Q7.91-7.22 7.84-7.06Q7.76-6.89 7.76-6.53L7.76-6.53L7.76-0.97Q7.76-0.61 7.84-0.44Q7.91-0.26 8.11-0.20Q8.32-0.14 8.75-0.14L8.75-0.14Q8.78-0.14 8.78-0.07Q8.78 0 8.75 0L8.75 0Q8.34 0 8.09-0.01L8.09-0.01L7.21-0.02L6.19-0.01Q5.98 0 5.62 0L5.62 0Q5.58 0 5.58-0.07Q5.58-0.14 5.62-0.14L5.62-0.14Q6.07-0.14 6.28-0.20Q6.49-0.26 6.56-0.44Q6.64-0.61 6.64-0.97L6.64-0.97L6.64-6.50ZM1.90-3.74L1.90-4.06L7.15-4.06L7.15-3.74L1.90-3.74ZM1.37-6.53Q1.37-6.89 1.30-7.06Q1.22-7.22 1.02-7.29Q0.82-7.36 0.40-7.36L0.40-7.36Q0.37-7.36 0.37-7.43Q0.37-7.50 0.40-7.50L0.40-7.50L1.03-7.49Q1.58-7.46 1.90-7.46L1.90-7.46Q2.32-7.46 2.89-7.49L2.89-7.49L3.52-7.50Q3.54-7.50 3.54-7.43Q3.54-7.36 3.52-7.36L3.52-7.36Q3.08-7.36 2.87-7.28Q2.66-7.21 2.59-7.04Q2.51-6.86 2.51-6.50L2.51-6.50L2.51-0.97Q2.51-0.61 2.58-0.44Q2.65-0.26 2.86-0.20Q3.07-0.14 3.52-0.14L3.52-0.14Q3.54-0.14 3.54-0.07Q3.54 0 3.52 0L3.52 0Q3.11 0 2.88-0.01L2.88-0.01L1.90-0.02L1.02-0.01Q0.79 0 0.38 0L0.38 0Q0.36 0 0.36-0.07Q0.36-0.14 0.38-0.14L0.38-0.14Q0.82-0.14 1.02-0.20Q1.22-0.26 1.30-0.44Q1.37-0.61 1.37-0.97L1.37-0.97L1.37-6.53ZM13.74-3.72L13.92-4.03L16.39-4.03L16.47-3.72L13.74-3.72ZM19.68-0.14Q19.72-0.14 19.72-0.07Q19.72 0 19.68 0L19.68 0Q19.45 0 18.94-0.02L18.94-0.02Q18.44-0.05 18.21-0.05L18.21-0.05Q17.91-0.05 17.50-0.02L17.50-0.02Q17.10 0 16.87 0L16.87 0Q16.82 0 16.82-0.07Q16.82-0.14 16.87-0.14L16.87-0.14Q17.23-0.14 17.38-0.22Q17.54-0.30 17.54-0.48L17.54-0.48Q17.54-0.66 17.34-1.09L17.34-1.09L14.83-6.19L15.32-7.00L12.94-1.64Q12.79-1.28 12.79-1.00L12.79-1.00Q12.79-0.58 13.09-0.36Q13.39-0.14 13.93-0.14L13.93-0.14Q13.99-0.14 13.99-0.07Q13.99 0 13.93 0L13.93 0Q13.71 0 13.30-0.02L13.30-0.02Q12.85-0.05 12.51-0.05L12.51-0.05Q12.19-0.05 11.76-0.02L11.76-0.02Q11.37 0 11.12 0L11.12 0Q11.06 0 11.06-0.07Q11.06-0.14 11.12-0.14L11.12-0.14Q11.46-0.14 11.68-0.28Q11.91-0.41 12.13-0.75Q12.34-1.09 12.64-1.76L12.64-1.76L15.22-7.57Q15.25-7.61 15.33-7.61L15.33-7.61Q15.42-7.61 15.43-7.57L15.43-7.57L18.37-1.64Q18.78-0.78 19.06-0.46Q19.34-0.14 19.68-0.14L19.68-0.14ZM24.28-0.97Q24.28-0.60 24.35-0.43Q24.41-0.26 24.60-0.20Q24.78-0.14 25.19-0.14L25.19-0.14Q25.23-0.14 25.23-0.07Q25.23 0 25.19 0L25.19 0Q24.81 0 24.58-0.01L24.58-0.01L23.69-0.02L22.83-0.01Q22.60 0 22.20 0L22.20 0Q22.17 0 22.17-0.07Q22.17-0.14 22.20-0.14L22.20-0.14Q22.61-0.14 22.80-0.20Q22.98-0.26 23.06-0.44Q23.13-0.61 23.13-0.97L23.13-0.97L23.13-6.53Q23.13-6.89 23.06-7.06Q22.98-7.22 22.80-7.29Q22.61-7.36 22.20-7.36L22.20-7.36Q22.17-7.36 22.17-7.43Q22.17-7.50 22.20-7.50L22.20-7.50L22.83-7.49Q23.36-7.46 23.69-7.46L23.69-7.46Q24.06-7.46 24.59-7.49L24.59-7.49L25.19-7.50Q25.23-7.50 25.23-7.43Q25.23-7.36 25.19-7.36L25.19-7.36Q24.80-7.36 24.60-7.28Q24.41-7.21 24.35-7.04Q24.28-6.86 24.28-6.50L24.28-6.50L24.28-0.97ZM34.20 0Q33.91 0 33.14-1.04Q32.36-2.09 31.26-3.95L31.26-3.95L32.22-4.25Q33.23-2.69 33.91-1.81Q34.58-0.94 35.11-0.54Q35.64-0.14 36.13-0.14L36.13-0.14Q36.16-0.14 36.16-0.07Q36.16 0 36.13 0L36.13 0L34.20 0ZM31.28-7.54Q32.35-7.54 32.93-7.14Q33.50-6.74 33.50-6.02L33.50-6.02Q33.50-5.44 33.14-4.91Q32.77-4.39 32.18-4.08Q31.58-3.77 30.94-3.77L30.94-3.77Q30.50-3.77 30.32-3.78L30.32-3.78L30.32-0.97Q30.32-0.60 30.38-0.43Q30.44-0.26 30.63-0.20Q30.82-0.14 31.24-0.14L31.24-0.14Q31.26-0.14 31.26-0.07Q31.26 0 31.24 0L31.24 0Q30.84 0 30.61-0.01L30.61-0.01L29.74-0.02L28.87-0.01Q28.64 0 28.25 0L28.25 0Q28.21 0 28.21-0.07Q28.21-0.14 28.25-0.14L28.25-0.14Q28.66-0.14 28.84-0.20Q29.03-0.26 29.10-0.44Q29.17-0.61 29.17-0.97L29.17-0.97L29.17-6.53Q29.17-6.89 29.11-7.06Q29.04-7.22 28.85-7.29Q28.66-7.36 28.26-7.36L28.26-7.36Q28.24-7.36 28.24-7.43Q28.24-7.50 28.26-7.50L28.26-7.50L28.88-7.49Q29.41-7.46 29.74-7.46L29.74-7.46Q30.10-7.46 30.49-7.50L30.49-7.50Q30.64-7.51 30.84-7.52Q31.04-7.54 31.28-7.54L31.28-7.54ZM32.32-5.58Q32.32-6.54 31.99-6.92Q31.67-7.31 31.08-7.31L31.08-7.31Q30.65-7.31 30.49-7.14Q30.32-6.97 30.32-6.50L30.32-6.50L30.32-4.12Q30.61-4.07 31.02-4.07L31.02-4.07Q31.73-4.07 32.02-4.40Q32.32-4.73 32.32-5.58L32.32-5.58ZM45.70-5.76Q46.19-5.76 46.58-5.55Q46.97-5.34 46.97-4.84L46.97-4.84Q46.97-4.38 46.66-4.06Q46.35-3.74 45.72-3.36L45.72-3.36Q45.26-3.06 44.97-2.84Q44.69-2.62 44.50-2.30Q44.31-1.98 44.31-1.57L44.31-1.57Q44.31-0.96 44.72-0.61Q45.14-0.26 45.76-0.26L45.76-0.26Q46.35-0.26 46.77-0.56Q47.19-0.86 47.40-1.31Q47.61-1.76 47.61-2.21L47.61-2.21Q47.61-2.62 47.42-2.84Q47.22-3.06 46.85-3.06L46.85-3.06Q46.82-3.06 46.81-3.13Q46.80-3.20 46.85-3.20L46.85-3.20L49.06-3.22Q49.11-3.22 49.11-3.14Q49.11-3.07 49.06-3.07L49.06-3.07Q48.75-3.07 48.60-3Q48.45-2.93 48.39-2.81Q48.34-2.70 48.24-2.41L48.24-2.41Q47.93-1.40 47.20-0.63Q46.47 0.14 45.12 0.14L45.12 0.14Q44.24 0.14 43.77-0.22Q43.31-0.59 43.31-1.10L43.31-1.10Q43.31-1.57 43.65-1.94Q43.98-2.30 44.64-2.77L44.64-2.77Q45.35-3.28 45.72-3.68Q46.08-4.08 46.08-4.63L46.08-4.63Q46.08-5.03 45.89-5.28Q45.69-5.53 45.39-5.53L45.39-5.53Q45.14-5.53 44.99-5.35Q44.85-5.17 44.85-4.82L44.85-4.82Q44.85-4.14 45.44-3.23Q46.04-2.32 47.00-1.49L47.00-1.49Q47.69-0.88 48.35-0.53Q49-0.18 49.34-0.14L49.34-0.14Q49.37-0.14 49.37-0.07Q49.37 0 49.34 0L49.34 0L47.81 0Q47.57 0 47.08-0.30Q46.59-0.60 45.99-1.15L45.99-1.15Q45.41-1.67 44.88-2.27Q44.34-2.88 44.13-3.36L44.13-3.36Q43.91-3.84 43.91-4.24L43.91-4.24Q43.91-4.69 44.16-5.03Q44.42-5.38 44.83-5.57Q45.24-5.76 45.70-5.76L45.70-5.76ZM56.68 0Q56.65 0 56.65-0.07Q56.65-0.14 56.68-0.14L56.68-0.14Q57.09-0.14 57.28-0.20Q57.46-0.26 57.53-0.44Q57.60-0.61 57.60-0.97L57.60-0.97L57.60-6.53Q57.60-6.89 57.53-7.06Q57.46-7.22 57.27-7.29Q57.08-7.36 56.68-7.36L56.68-7.36Q56.65-7.36 56.65-7.43Q56.65-7.50 56.68-7.50L56.68-7.50L61.68-7.50Q61.80-7.50 61.80-7.39L61.80-7.39L61.82-5.83Q61.82-5.81 61.75-5.80Q61.69-5.80 61.68-5.83L61.68-5.83Q61.39-7.19 60.02-7.19L60.02-7.19L59.53-7.19Q59.08-7.19 58.91-7.03Q58.74-6.88 58.74-6.50L58.74-6.50L58.74-1.02Q58.74-0.62 58.89-0.47Q59.04-0.31 59.42-0.31L59.42-0.31L60.01-0.31Q61.62-0.31 62.05-1.86L62.05-1.86Q62.05-1.88 62.11-1.88L62.11-1.88Q62.19-1.88 62.19-1.85L62.19-1.85Q62.07-0.94 62.07-0.18L62.07-0.18Q62.07-0.08 62.04-0.04Q62 0 61.89 0L61.89 0L56.68 0ZM61.22-2.71Q61.22-3.74 59.88-3.74L59.88-3.74L58.20-3.74L58.20-4.06L59.89-4.06Q61.21-4.06 61.21-4.94L61.21-4.94Q61.21-4.98 61.27-4.98Q61.34-4.98 61.34-4.94L61.34-4.94L61.33-3.90L61.34-3.34Q61.36-2.95 61.36-2.71L61.36-2.71Q61.36-2.69 61.29-2.69Q61.22-2.69 61.22-2.71L61.22-2.71ZM70.07-5.98Q70.37-6.47 70.37-6.83L70.37-6.83Q70.37-7.36 69.71-7.36L69.71-7.36Q69.69-7.36 69.69-7.43Q69.69-7.50 69.71-7.50L69.71-7.50L70.34-7.49Q70.84-7.46 71.26-7.46L71.26-7.46Q71.46-7.46 71.75-7.49L71.75-7.49L72.20-7.50Q72.22-7.50 72.22-7.43Q72.22-7.36 72.20-7.36L72.20-7.36Q71.80-7.36 71.30-6.94Q70.79-6.53 70.40-5.88L70.40-5.88L68.73-3.18L68.49-3.37L70.07-5.98ZM66.05-6.23Q65.64-6.86 65.35-7.11Q65.06-7.36 64.78-7.36L64.78-7.36Q64.74-7.36 64.74-7.43Q64.74-7.50 64.78-7.50L64.78-7.50L65.18-7.49Q65.44-7.46 65.56-7.46L65.56-7.46Q65.96-7.46 66.70-7.49L66.70-7.49L67.46-7.50Q67.48-7.50 67.48-7.43Q67.48-7.36 67.46-7.36L67.46-7.36Q66.95-7.36 66.95-7.03L66.95-7.03Q66.95-6.89 67.11-6.64L67.11-6.64L68.94-3.82L67.98-3.28L66.05-6.23ZM67.89-3.72L69.03-3.83L69.03-0.97Q69.03-0.60 69.09-0.43Q69.15-0.26 69.33-0.20Q69.52-0.14 69.93-0.14L69.93-0.14Q69.96-0.14 69.96-0.07Q69.96 0 69.93 0L69.93 0Q69.54 0 69.33-0.01L69.33-0.01L68.45-0.02L67.59-0.01Q67.35 0 66.95 0L66.95 0Q66.93 0 66.93-0.07Q66.93-0.14 66.95-0.14L66.95-0.14Q67.36-0.14 67.55-0.20Q67.74-0.26 67.82-0.44Q67.89-0.61 67.89-0.97L67.89-0.97L67.89-3.72ZM74.64 0Q74.60 0 74.60-0.07Q74.60-0.14 74.64-0.14L74.64-0.14Q75.05-0.14 75.23-0.20Q75.42-0.26 75.49-0.44Q75.55-0.61 75.55-0.97L75.55-0.97L75.55-6.53Q75.55-6.89 75.49-7.06Q75.42-7.22 75.23-7.29Q75.04-7.36 74.64-7.36L74.64-7.36Q74.60-7.36 74.60-7.43Q74.60-7.50 74.64-7.50L74.64-7.50L79.63-7.50Q79.75-7.50 79.75-7.39L79.75-7.39L79.78-5.83Q79.78-5.81 79.71-5.80Q79.64-5.80 79.63-5.83L79.63-5.83Q79.34-7.19 77.98-7.19L77.98-7.19L77.48-7.19Q77.04-7.19 76.87-7.03Q76.69-6.88 76.69-6.50L76.69-6.50L76.69-1.02Q76.69-0.62 76.84-0.47Q76.99-0.31 77.38-0.31L77.38-0.31L77.96-0.31Q79.57-0.31 80.00-1.86L80.00-1.86Q80.00-1.88 80.06-1.88L80.06-1.88Q80.15-1.88 80.15-1.85L80.15-1.85Q80.03-0.94 80.03-0.18L80.03-0.18Q80.03-0.08 79.99-0.04Q79.96 0 79.85 0L79.85 0L74.64 0ZM79.18-2.71Q79.18-3.74 77.83-3.74L77.83-3.74L76.15-3.74L76.15-4.06L77.84-4.06Q79.16-4.06 79.16-4.94L79.16-4.94Q79.16-4.98 79.23-4.98Q79.30-4.98 79.30-4.94L79.30-4.94L79.28-3.90L79.30-3.34Q79.32-2.95 79.32-2.71L79.32-2.71Q79.32-2.69 79.25-2.69Q79.18-2.69 79.18-2.71L79.18-2.71ZM85.14-1.02Q85.14-0.71 85.20-0.56Q85.26-0.41 85.41-0.36Q85.57-0.31 85.92-0.31L85.92-0.31L86.64-0.31Q87.49-0.31 88.08-0.79Q88.66-1.26 88.86-2.06L88.86-2.06Q88.86-2.09 88.90-2.09L88.90-2.09Q88.93-2.09 88.96-2.07Q88.99-2.05 88.99-2.04L88.99-2.04Q88.88-0.94 88.88-0.18L88.88-0.18Q88.88-0.08 88.84-0.04Q88.81 0 88.70 0L88.70 0L83.08 0Q83.06 0 83.06-0.07Q83.06-0.14 83.08-0.14L83.08-0.14Q83.49-0.14 83.68-0.20Q83.86-0.26 83.93-0.44Q84.00-0.61 84.00-0.97L84.00-0.97L84.00-6.53Q84.00-6.89 83.93-7.06Q83.86-7.22 83.67-7.29Q83.48-7.36 83.08-7.36L83.08-7.36Q83.06-7.36 83.06-7.43Q83.06-7.50 83.08-7.50L83.08-7.50L83.70-7.49Q84.22-7.46 84.56-7.46L84.56-7.46Q84.92-7.46 85.45-7.49L85.45-7.49L86.05-7.50Q86.08-7.50 86.08-7.43Q86.08-7.36 86.05-7.36L86.05-7.36Q85.65-7.36 85.46-7.29Q85.27-7.22 85.20-7.05Q85.14-6.88 85.14-6.52L85.14-6.52L85.14-1.02ZM93.78-3.72L93.96-4.03L96.44-4.03L96.52-3.72L93.78-3.72ZM99.72-0.14Q99.77-0.14 99.77-0.07Q99.77 0 99.72 0L99.72 0Q99.50 0 98.99-0.02L98.99-0.02Q98.49-0.05 98.26-0.05L98.26-0.05Q97.96-0.05 97.55-0.02L97.55-0.02Q97.14 0 96.92 0L96.92 0Q96.87 0 96.87-0.07Q96.87-0.14 96.92-0.14L96.92-0.14Q97.28-0.14 97.43-0.22Q97.59-0.30 97.59-0.48L97.59-0.48Q97.59-0.66 97.38-1.09L97.38-1.09L94.88-6.19L95.37-7.00L92.99-1.64Q92.84-1.28 92.84-1.00L92.84-1.00Q92.84-0.58 93.14-0.36Q93.44-0.14 93.98-0.14L93.98-0.14Q94.04-0.14 94.04-0.07Q94.04 0 93.98 0L93.98 0Q93.76 0 93.35-0.02L93.35-0.02Q92.90-0.05 92.56-0.05L92.56-0.05Q92.24-0.05 91.80-0.02L91.80-0.02Q91.42 0 91.17 0L91.17 0Q91.11 0 91.11-0.07Q91.11-0.14 91.17-0.14L91.17-0.14Q91.50-0.14 91.73-0.28Q91.96-0.41 92.18-0.75Q92.39-1.09 92.69-1.76L92.69-1.76L95.27-7.57Q95.30-7.61 95.38-7.61L95.38-7.61Q95.46-7.61 95.48-7.57L95.48-7.57L98.42-1.64Q98.82-0.78 99.11-0.46Q99.39-0.14 99.72-0.14L99.72-0.14ZM103.69-6.23Q103.69-5.78 103.91-5.44Q104.14-5.10 104.46-4.85Q104.78-4.61 105.35-4.25L105.35-4.25Q105.96-3.86 106.31-3.59Q106.67-3.31 106.92-2.91Q107.17-2.51 107.17-1.97L107.17-1.97Q107.17-1.36 106.85-0.88Q106.54-0.40 105.95-0.13Q105.37 0.14 104.63 0.14L104.63 0.14Q104.12 0.14 103.59 0.01Q103.06-0.12 102.78-0.31L102.78-0.31Q102.67-0.38 102.66-0.54L102.66-0.54L102.59-2.35L102.59-2.36Q102.59-2.41 102.65-2.42Q102.71-2.42 102.72-2.38L102.72-2.38Q103.12-1.39 103.63-0.76Q104.14-0.12 104.92-0.12L104.92-0.12Q105.44-0.12 105.79-0.40Q106.14-0.68 106.14-1.34L106.14-1.34Q106.14-1.87 105.91-2.27Q105.67-2.66 105.33-2.93Q104.99-3.19 104.40-3.58L104.40-3.58Q103.82-3.95 103.50-4.21Q103.18-4.46 102.95-4.84Q102.72-5.22 102.72-5.72L102.72-5.72Q102.72-6.35 103.07-6.78Q103.42-7.21 103.97-7.42Q104.53-7.63 105.14-7.63L105.14-7.63Q105.54-7.63 105.95-7.55Q106.36-7.48 106.64-7.36L106.64-7.36Q106.82-7.28 106.82-7.13L106.82-7.13L106.85-5.51Q106.85-5.46 106.79-5.45Q106.74-5.44 106.72-5.47L106.72-5.47Q106.48-6.20 106.07-6.80Q105.67-7.39 104.87-7.39L104.87-7.39Q104.33-7.39 104.01-7.07Q103.69-6.76 103.69-6.23L103.69-6.23ZM116.44-6.50Q116.44-6.86 116.37-7.04Q116.30-7.21 116.08-7.28Q115.87-7.36 115.42-7.36L115.42-7.36Q115.39-7.36 115.39-7.43Q115.39-7.50 115.42-7.50L115.42-7.50L116-7.49Q116.58-7.46 117.02-7.46L117.02-7.46Q117.34-7.46 117.90-7.49L117.90-7.49L118.56-7.50Q118.59-7.50 118.59-7.43Q118.59-7.36 118.56-7.36L118.56-7.36Q118.12-7.36 117.92-7.29Q117.72-7.22 117.64-7.06Q117.57-6.89 117.57-6.53L117.57-6.53L117.57-0.97Q117.57-0.61 117.64-0.44Q117.72-0.26 117.92-0.20Q118.12-0.14 118.56-0.14L118.56-0.14Q118.59-0.14 118.59-0.07Q118.59 0 118.56 0L118.56 0Q118.15 0 117.90-0.01L117.90-0.01L117.02-0.02L116-0.01Q115.78 0 115.42 0L115.42 0Q115.39 0 115.39-0.07Q115.39-0.14 115.42-0.14L115.42-0.14Q115.88-0.14 116.09-0.20Q116.30-0.26 116.37-0.44Q116.44-0.61 116.44-0.97L116.44-0.97L116.44-6.50ZM111.70-3.74L111.70-4.06L116.96-4.06L116.96-3.74L111.70-3.74ZM111.18-6.53Q111.18-6.89 111.10-7.06Q111.03-7.22 110.83-7.29Q110.62-7.36 110.20-7.36L110.20-7.36Q110.18-7.36 110.18-7.43Q110.18-7.50 110.20-7.50L110.20-7.50L110.84-7.49Q111.39-7.46 111.70-7.46L111.70-7.46Q112.12-7.46 112.70-7.49L112.70-7.49L113.32-7.50Q113.35-7.50 113.35-7.43Q113.35-7.36 113.32-7.36L113.32-7.36Q112.89-7.36 112.68-7.28Q112.47-7.21 112.39-7.04Q112.32-6.86 112.32-6.50L112.32-6.50L112.32-0.97Q112.32-0.61 112.39-0.44Q112.46-0.26 112.67-0.20Q112.88-0.14 113.32-0.14L113.32-0.14Q113.35-0.14 113.35-0.07Q113.35 0 113.32 0L113.32 0Q112.92 0 112.69-0.01L112.69-0.01L111.70-0.02L110.83-0.01Q110.60 0 110.19 0L110.19 0Q110.17 0 110.17-0.07Q110.17-0.14 110.19-0.14L110.19-0.14Q110.62-0.14 110.83-0.20Q111.03-0.26 111.10-0.44Q111.18-0.61 111.18-0.97L111.18-0.97L111.18-6.53Z" transform="translate(-0.36, 7.632000000000001)"/></g></g></g></g><defs v-gra="od"/>
  </svg>
</svg>


